# xmcd CD database file
#
# Track frame offsets:
#	150
#	40311
#	67424
#	73087
#	95450
#	126168
#	151939
#	172447
#	202804
#
# Disc length: 3124 seconds
#
# Revision: 0
# Processed by: cddbd v1.5.2PL0 Copyright (c) Steve Scherf et al.
# Submitted via: CDex 1.70beta2
#
DISCID=870c3209
DTITLE=Merlin Factor - Merlin Factor
DYEAR=2007
DGENRE=Jazz
TTITLE0=That Night
TTITLE1=Hogtown Samba
TTITLE2=Nina Intro
TTITLE3=Come To Me, Nina
TTITLE4=Blue Cha
TTITLE5=Before Leaving
TTITLE6=One Existence
TTITLE7=Hartsfield Lounge
TTITLE8=Number Ten
EXTD=YEAR: 2007
EXTT0=
EXTT1=
EXTT2=
EXTT3=
EXTT4=
EXTT5=
EXTT6=
EXTT7=
EXTT8=
PLAYORDER=
